<?xml version="1.0" encoding="UTF-8"?>
<!DOCTYPE svg PUBLIC "-//W3C//DTD SVG 1.1//EN" "http://www.w3.org/Graphics/SVG/1.1/DTD/svg11.dtd">
<!-- Creator: CorelDRAW -->
<svg xmlns="http://www.w3.org/2000/svg" xml:space="preserve" width="6.82666in" height="6.82666in" style="shape-rendering:geometricPrecision; text-rendering:geometricPrecision; image-rendering:optimizeQuality; fill-rule:evenodd; clip-rule:evenodd"
viewBox="0 0 6.82666 6.82666"
 xmlns:xlink="http://www.w3.org/1999/xlink">
 <defs>
  <style type="text/css">
   <![CDATA[
    .fil1 {fill:none}
    .fil0 {fill:#212121;fill-rule:nonzero}
   ]]>
  </style>
 </defs>
 <g id="Layer_x0020_1">
  <metadata id="CorelCorpID_0Corel-Layer"/>
  <path class="fil0" d="M0.96 1.99935l4.90666 0 0.106669 0 0 0.106669 0 0.83772 0 0.106669 -0.106669 0 -4.90666 0 -0.106669 0 0 -0.106669 0 -0.83772 0 -0.106669 0.106669 0zm4.79999 0.213339l-4.69332 0 0 0.624382 4.69332 0 0 -0.624382z"/>
  <path class="fil0" d="M1.30638 2.83707l4.2139 0 0.106669 0 0 0.106669 0 2.7382 0 0.106669 -0.106669 0 -4.2139 0 -0.106669 0 0 -0.106669 0 -2.7382 0 -0.106669 0.106669 0zm4.10723 0.213339l-4.00056 0 0 2.52486 4.00056 0 0 -2.52486z"/>
  <polygon class="fil0" points="3.52,2.94374 3.52,5.68193 3.30666,5.68193 3.30666,2.94374 "/>
  <polygon class="fil0" points="1.30638,4.20617 5.52028,4.20617 5.52028,4.4195 1.30638,4.4195 "/>
  <polygon class="fil0" points="3.30666,2.94374 3.30666,2.10602 3.52,2.10602 3.52,2.94374 "/>
  <path class="fil0" d="M3.30708 2.10518c0.00579134,-0.561154 0.21263,-0.864252 0.442677,-0.991724 0.184909,-0.102457 0.386701,-0.0928504 0.524177,-0.0128937 0.153835,0.0894685 0.233114,0.258244 0.146854,0.459646 -0.087248,0.203713 -0.368579,0.445157 -0.974122,0.646642l-0.141118 0.0469567 0.0015315 -0.148626zm0.546008 -0.80589c-0.152949,0.084748 -0.29235,0.284984 -0.325937,0.653843 0.434969,-0.163681 0.637386,-0.335189 0.697803,-0.476256 0.0365551,-0.0853504 0.00496063,-0.155713 -0.057689,-0.19215 -0.0790118,-0.0459528 -0.19937,-0.0490512 -0.314177,0.014563z"/>
  <path class="fil0" d="M3.29951 1.95313c-0.0335866,-0.368858 -0.172988,-0.569094 -0.325937,-0.653843 -0.114807,-0.0636142 -0.235165,-0.0605157 -0.314177,-0.014563 -0.0626496,0.036437 -0.0942441,0.106799 -0.057689,0.19215 0.0604173,0.141067 0.262835,0.312575 0.697803,0.476256zm-0.222606 -0.839677c0.230047,0.127472 0.436886,0.430571 0.442677,0.991724l0.0015315 0.148626 -0.141118 -0.0469567c-0.605543,-0.201484 -0.886874,-0.442929 -0.974122,-0.646642 -0.0862598,-0.201402 -0.00698031,-0.370177 0.146854,-0.459646 0.137476,-0.0799567 0.339268,-0.089563 0.524177,0.0128937z"/>
 </g>
 <rect class="fil1" width="6.82666" height="6.82666"/>
</svg>
