<?xml version="1.0" encoding="iso-8859-1"?>
<!-- Generator: Adobe Illustrator 23.0.5, SVG Export Plug-In . SVG Version: 6.00 Build 0)  -->
<svg version="1.1" xmlns="http://www.w3.org/2000/svg" xmlns:xlink="http://www.w3.org/1999/xlink" x="0px" y="0px"
	 viewBox="0 0 492 492" style="enable-background:new 0 0 492 492;" xml:space="preserve">
<g id="Master_Layer_2">
</g>
<g id="Layer_1">
	<g>
		<g>
			<g>
				<g>
					<g>
						<path style="fill-rule:evenodd;clip-rule:evenodd;fill:#212121;" d="M389.252,264.638H324.86c-3.192,0-5.76-2.568-5.76-5.76
							c0-3.192,2.568-5.76,5.76-5.76h64.392c10.992,0,19.944-9,19.944-20.064c0-11.064-8.952-20.064-19.944-20.064h-123.72
							c-3.192,0-5.76-2.568-5.76-5.76c0-3.192,2.568-5.76,5.76-5.76h123.72c17.352,0,31.464,14.16,31.464,31.584
							C420.692,250.478,406.58,264.638,389.252,264.638z"/>
					</g>
					<g>
						<path style="fill-rule:evenodd;clip-rule:evenodd;fill:#212121;" d="M397.988,316.286h-73.152c-3.192,0-5.76-2.568-5.76-5.76
							c0-3.192,2.568-5.76,5.76-5.76h73.152c10.992,0,19.944-9,19.944-20.064s-8.952-20.064-19.944-20.064l-73.152,0
							c-3.192,0-5.76-2.568-5.76-5.76c0-3.192,2.568-5.76,5.76-5.76h73.152c17.352,0,31.464,14.16,31.464,31.584
							C429.452,302.102,415.34,316.286,397.988,316.286z"/>
					</g>
					<g>
						<path style="fill-rule:evenodd;clip-rule:evenodd;fill:#212121;" d="M385.412,367.91h-62.448c-3.192,0-5.76-2.568-5.76-5.76
							c0-3.192,2.568-5.76,5.76-5.76h62.448c10.992,0,19.944-9,19.944-20.064s-8.952-20.064-19.944-20.064l-60.552,0
							c-3.192,0-5.76-2.568-5.76-5.76c0-3.192,2.568-5.76,5.76-5.76h60.552c17.352,0,31.464,14.16,31.464,31.584
							C416.852,353.75,402.764,367.91,385.412,367.91z"/>
					</g>
					<g>
						<path style="fill-rule:evenodd;clip-rule:evenodd;fill:#212121;" d="M361.484,419.557H139.532c-3.192,0-5.76-2.568-5.76-5.76
							c0-3.192,2.568-5.76,5.76-5.76h221.952c10.992,0,19.944-9,19.944-20.064s-8.952-20.064-19.944-20.064h-38.52
							c-3.192,0-5.76-2.568-5.76-5.76c0-3.192,2.568-5.76,5.76-5.76h38.52c17.352,0,31.464,14.16,31.464,31.584
							C392.924,405.374,378.812,419.557,361.484,419.557z"/>
					</g>
					<g>
						<path style="fill-rule:evenodd;clip-rule:evenodd;fill:#212121;" d="M265.532,213.014c-0.456,0-0.912-0.048-1.368-0.168
							c-3.096-0.744-4.992-3.864-4.248-6.96l6.96-28.656c4.488-18.48,4.92-37.824,1.224-55.92
							c-2.16-10.656-5.496-19.872-9.912-27.408c-3.768-6.456-8.352-11.736-13.632-15.672c-6.696-4.992-15.12-5.664-22.56-1.848
							c-7.512,3.864-11.88,11.184-11.736,19.608c0.528,28.584-2.328,81.504-27.48,114.768c-1.92,2.544-5.52,3.048-8.064,1.128
							c-2.544-1.92-3.048-5.52-1.128-8.064c10.104-13.368,17.304-31.92,21.408-55.176c3.528-20.064,3.984-39.576,3.744-52.44
							c-0.24-12.72,6.648-24.24,18-30.072c5.328-2.736,11.256-4.008,17.16-3.648c6.288,0.384,12.36,2.64,17.568,6.504
							c6.528,4.848,12.144,11.28,16.704,19.104c5.04,8.64,8.832,19.032,11.232,30.936c4.032,19.776,3.576,40.848-1.32,60.936
							l-6.96,28.656C270.476,211.238,268.124,213.014,265.532,213.014z"/>
					</g>
				</g>
				<g>
					<path style="fill-rule:evenodd;clip-rule:evenodd;fill:#212121;" d="M139.532,431.054H68.828c-3.192,0-5.76-2.568-5.76-5.76
						v-229.56c0-3.192,2.568-5.76,5.76-5.76h70.704c3.192,0,5.76,2.568,5.76,5.76v229.56
						C145.292,428.486,142.7,431.054,139.532,431.054L139.532,431.054z M74.588,419.534h59.184v-218.04H74.588V419.534z"/>
				</g>
				<g>
					<path style="fill-rule:evenodd;clip-rule:evenodd;fill:#212121;" d="M178.196,213.014h-38.664c-3.192,0-5.76-2.568-5.76-5.76
						c0-3.192,2.568-5.76,5.76-5.76h38.664c3.192,0,5.76,2.568,5.76,5.76C183.956,210.422,181.388,213.014,178.196,213.014z"/>
				</g>
			</g>
		</g>
	</g>
</g>
</svg>
