<svg xmlns="http://www.w3.org/2000/svg" viewBox="0 0 25 25"><defs><style>.cls-1{fill:#231f20;}</style></defs><g id="pen"><path class="cls-1" d="M15.45,4.3a1.2,1.2,0,0,0-1.66.15L5.61,14.28A10.76,10.76,0,0,0,3.2,19.85L2.77,23.3a.49.49,0,0,0,.17.44.51.51,0,0,0,.32.12l.15,0,3.32-1.05a10.78,10.78,0,0,0,5-3.38L20,9.58a1.17,1.17,0,0,0-.16-1.65Zm3.74,4.64L11,18.77a9.81,9.81,0,0,1-4.57,3.07l-2.57.81L4.19,20a9.75,9.75,0,0,1,2.19-5l8.18-9.83a.22.22,0,0,1,.14,0,.2.2,0,0,1,.11,0L19.16,8.7A.17.17,0,0,1,19.19,8.94Z"/><path class="cls-1" d="M21.24,3.07,20,2.06a2.19,2.19,0,0,0-3.11.28l-.83,1a.5.5,0,0,0,.07.7.49.49,0,0,0,.7-.06l.83-1a1.21,1.21,0,0,1,1.7-.16l1.22,1a1.21,1.21,0,0,1,.15,1.7l-.83,1a.5.5,0,0,0,.39.82.49.49,0,0,0,.38-.18l.83-1A2.22,2.22,0,0,0,21.24,3.07Z"/><path class="cls-1" d="M8.47,7.45a.51.51,0,0,0,.39-.18l3.82-4.58A.52.52,0,0,1,13,2.5a.51.51,0,0,1,.39.12l.74.62a.5.5,0,1,0,.64-.77l-.74-.62A1.54,1.54,0,0,0,13,1.5a1.51,1.51,0,0,0-1,.55L8.09,6.63a.49.49,0,0,0,.06.7A.51.51,0,0,0,8.47,7.45Z"/></g></svg>