<svg xmlns="http://www.w3.org/2000/svg" viewBox="0 0 48 48"><title>15-growth</title><g id="_15-growth" data-name="15-growth"><path d="M43,42H5a5.006,5.006,0,0,1-5-5V13A5.006,5.006,0,0,1,5,8H22v2H5a3,3,0,0,0-3,3V37a3,3,0,0,0,3,3H43a3,3,0,0,0,3-3V22h2V37A5.006,5.006,0,0,1,43,42Z"/><rect x="14" y="46" width="20" height="2"/><rect x="17" y="41" width="2" height="6"/><rect x="29" y="41" width="2" height="6"/><path d="M36,24A12,12,0,1,1,48,12,12.013,12.013,0,0,1,36,24ZM36,2A10,10,0,1,0,46,12,10.011,10.011,0,0,0,36,2Z"/><path d="M37,13H35a3,3,0,0,1,0-6h2a3,3,0,0,1,3,3H38a1,1,0,0,0-1-1H35a1,1,0,0,0,0,2h2Z"/><path d="M37,17H35a3,3,0,0,1-3-3h2a1,1,0,0,0,1,1h2a1,1,0,0,0,0-2H35V11h2a3,3,0,0,1,0,6Z"/><rect x="35" y="6" width="2" height="2"/><rect x="35" y="16" width="2" height="2"/><path d="M9,35H5V33H8.586l7.707-7.707a1,1,0,0,1,1.414,0L22.5,30.086l8.793-8.793,1.414,1.414-9.5,9.5a1,1,0,0,1-1.414,0L17,27.414,9.707,34.707A1,1,0,0,1,9,35Z"/><path d="M41,38H39V36h2a1,1,0,0,0,1-1V33h2v2A3,3,0,0,1,41,38Z"/><rect x="35" y="36" width="2" height="2"/><path d="M6,17H4V15a3,3,0,0,1,3-3H9v2H7a1,1,0,0,0-1,1Z"/><rect x="11" y="12" width="2" height="2"/></g></svg>