<svg xmlns="http://www.w3.org/2000/svg" viewBox="0 0 48 48"><title>8-Book</title><g id="_8-Book" data-name="8-Book"><rect x="16" y="41" width="28" height="2"/><path d="M45,37H43V2H29V0H44a1,1,0,0,1,1,1Z"/><path d="M5,42H3V6A6.006,6.006,0,0,1,9,0h4V2H9A4,4,0,0,0,5,6Z"/><path d="M44,48H9A6,6,0,0,1,9,36H44a1,1,0,0,1,1,1V47A1,1,0,0,1,44,48ZM9,38a4,4,0,0,0,0,8H43V38Z"/><rect x="9" y="1" width="2" height="36"/><path d="M39,12H37V8H30V6h8a1,1,0,0,1,1,1Z"/><path d="M38,20H30V18h7V15h2v4A1,1,0,0,1,38,20Z"/><rect x="30" y="14" width="9" height="2"/><rect x="12" y="41" width="2" height="2"/><path d="M26,22a1,1,0,0,1-.707-.293L21,17.414l-4.293,4.293A1,1,0,0,1,15,21V0h2V18.586l3.293-3.293a1,1,0,0,1,1.414,0L25,18.586V0h2V21a1,1,0,0,1-1,1Z"/><rect x="20" y="10" width="2" height="6"/></g></svg>