<svg xmlns="http://www.w3.org/2000/svg" viewBox="0 0 48 48"><title>30-book</title><g id="_30-book" data-name="30-book"><path d="M35,14a5,5,0,1,1,5-5A5.006,5.006,0,0,1,35,14Zm0-8a3,3,0,1,0,3,3A3,3,0,0,0,35,6Z"/><path d="M40,22H30a1,1,0,0,1-1-1V18a6,6,0,0,1,12,0v3A1,1,0,0,1,40,22Zm-9-2h8V18a4,4,0,0,0-8,0Z"/><path d="M35,44H3a3,3,0,0,1-3-3V15a3,3,0,0,1,3-3H20v2H3a1,1,0,0,0-1,1V41a1,1,0,0,0,1,1H35a1,1,0,0,0,1-1V28h2V41A3,3,0,0,1,35,44Z"/><rect x="18" y="13" width="2" height="30"/><path d="M19,48a5.006,5.006,0,0,1-5-5h2a3,3,0,0,0,6,0h2A5.006,5.006,0,0,1,19,48Z"/><path d="M27,30a.987.987,0,0,1-.383-.076A1,1,0,0,1,26,29V26H25a3,3,0,0,1-3-3V3a3,3,0,0,1,3-3H45a3,3,0,0,1,3,3V23a3,3,0,0,1-3,3H31.414l-3.707,3.707A1,1,0,0,1,27,30ZM25,2a1,1,0,0,0-1,1V23a1,1,0,0,0,1,1h2a1,1,0,0,1,1,1v1.586l2.293-2.293A1,1,0,0,1,31,24H45a1,1,0,0,0,1-1V3a1,1,0,0,0-1-1Z"/><rect x="9" y="17" width="6" height="2"/><rect x="5" y="22" width="10" height="2"/><rect x="5" y="27" width="10" height="2"/><rect x="5" y="32" width="10" height="2"/><rect x="5" y="37" width="10" height="2"/><rect x="23" y="32" width="10" height="2"/><rect x="23" y="37" width="6" height="2"/><rect x="5" y="17" width="2" height="2"/><rect x="31" y="37" width="2" height="2"/></g></svg>