<svg id="Layer_1" data-name="Layer 1" xmlns="http://www.w3.org/2000/svg" viewBox="0 0 48 48"><title>7. Business Card</title><path d="M45.5,38.55H2.5a1,1,0,0,1-1-1V10.45a1,1,0,0,1,1-1h43a1,1,0,0,1,1,1v27.1A1,1,0,0,1,45.5,38.55Zm-42-2h41V11.45H3.5Z"/><path d="M12.71,25.32H9.66a2.53,2.53,0,0,1-2.53-2.53V18a2.53,2.53,0,0,1,2.53-2.53h3.05A2.53,2.53,0,0,1,15.24,18v4.75A2.53,2.53,0,0,1,12.71,25.32ZM9.66,17.51a.53.53,0,0,0-.53.53v4.75a.53.53,0,0,0,.53.53h3.05a.53.53,0,0,0,.53-.53V18a.53.53,0,0,0-.53-.53Z"/><path d="M39.72,19.51H21a1,1,0,0,1,0-2H39.72a1,1,0,0,1,0,2Z"/><path d="M39.72,23.33H21a1,1,0,0,1,0-2H39.72a1,1,0,0,1,0,2Z"/><path d="M41,33.47H7a1,1,0,1,1,0-2H41a1,1,0,1,1,0,2Z"/></svg>