<svg xmlns="http://www.w3.org/2000/svg" viewBox="0 0 48 48"><title>splash</title><g id="splash"><path d="M40.43,23.92l3.33-4.49a1,1,0,0,0,.17-.86,1,1,0,0,0-.58-.66l-5.12-2.18.66-5.44a1,1,0,0,0-1.11-1.11l-5.6.65L29.92,4.6A1,1,0,0,0,29.26,4a1,1,0,0,0-.86.17L23.92,7.57,19.43,4.24a1,1,0,0,0-.86-.16,1,1,0,0,0-.66.57l-2.2,5.17-5.56-.64a1,1,0,0,0-.82.29,1,1,0,0,0-.29.82l.67,5.5L4.6,18a1,1,0,0,0-.57.66,1.05,1.05,0,0,0,.17.86L7.55,24,4.2,28.49a1,1,0,0,0-.16.86,1,1,0,0,0,.57.66L9.7,32.2,9,37.79a1,1,0,0,0,1.11,1.12l5.62-.67L18,43.4a1,1,0,0,0,.66.57,1.15,1.15,0,0,0,.26,0,1,1,0,0,0,.6-.2L24,40.45l4.49,3.35A1,1,0,0,0,30,43.39l2.21-5.14,5.56.66a1,1,0,0,0,1.11-1.12l-.66-5.64,5.17-2.23a1,1,0,0,0,.57-.66,1.05,1.05,0,0,0-.17-.86Zm-3.68,6.69a1,1,0,0,0-.6,1l.61,5.12-5-.59a1,1,0,0,0-1,.6l-2,4.66-4.07-3a1,1,0,0,0-1.19,0l-4.08,3-2-4.67a1,1,0,0,0-.92-.61h-.12l-5.1.6.59-5.08a1,1,0,0,0-.59-1l-4.62-2,3-4.07a1,1,0,0,0,0-1.19l-3-4.08,4.63-2a1,1,0,0,0,.6-1l-.61-5,5,.59a1,1,0,0,0,1-.61l2-4.69,4.07,3a1,1,0,0,0,1.2,0l4.07-3.06,2.05,4.74a1,1,0,0,0,1,.6l5.08-.59-.6,4.92a1,1,0,0,0,.6,1.05l4.65,2-3,4.07a1,1,0,0,0,0,1.2l3.06,4.07Z"/><path d="M27.5,25A2.5,2.5,0,1,0,30,27.5,2.5,2.5,0,0,0,27.5,25Zm0,3a.5.5,0,0,1-.5-.5.5.5,0,0,1,1,0A.5.5,0,0,1,27.5,28Z"/><path d="M20.5,23A2.5,2.5,0,1,0,18,20.5,2.5,2.5,0,0,0,20.5,23Zm0-3a.5.5,0,0,1,.5.5.5.5,0,0,1-1,0A.5.5,0,0,1,20.5,20Z"/><path d="M28.29,18.29l-10,10a1,1,0,1,0,1.42,1.41l10-10a1,1,0,0,0,0-1.41A1,1,0,0,0,28.29,18.29Z"/></g></svg>